<svg xmlns="http://www.w3.org/2000/svg" viewBox="0 0 6229.85 1404.6"><defs><style>.cls-1{fill:#89b829;}.cls-2{fill:#888988;}</style></defs><title>资源 1</title><g id="图层_2" data-name="图层 2"><g id="图层_1-2" data-name="图层 1"><g id="标志"><path class="cls-1" d="M3322.17,1218.7c-212.7,0-385.69-173-385.69-385.69s173-385.71,385.69-385.71,385.59,173,385.59,385.71S3534.88,1218.7,3322.17,1218.7Zm0-610.42c-123.81,0-224.59,100.8-224.59,224.73s100.78,224.6,224.59,224.6,224.49-100.8,224.49-224.6S3446,608.28,3322.17,608.28Z"/><path class="cls-1" d="M2910.52,188h-163l-55.22,368.82c-69.47-67.66-164.14-109.54-268.51-109.54-212.83,0-385.84,173-385.84,385.71s173,385.69,385.84,385.69c187.95,0,344.66-135.38,378.45-313.75l.9.14Zm-486.76,869.59c-123.93,0-224.72-100.8-224.72-224.6s100.79-224.73,224.72-224.73c123.67,0,224.36,100.8,224.36,224.73S2547.43,1057.61,2423.76,1057.61Z"/><path class="cls-1" d="M1404.75,1.51,747.53,0H702.29C314.43,0,0,314.43,0,702.3s314.43,702.3,702.29,702.3c387.43,0,701.57-313.72,702.28-701l.18.16ZM702.29,1053.44c-193.93,0-351.13-157.21-351.13-351.14s157.2-351.15,351.13-351.15,351.15,157.21,351.15,351.15S896.23,1053.44,702.29,1053.44Z"/></g><path class="cls-2" d="M5197.58,1022.93c-3.08,2-6.22,3.75-9.37,5.54-2.61,1.48-5.21,2.94-7.87,4.31s-5.53,2.75-8.33,4c-3.28,1.51-6.6,3-10,4.32-2.41,1-4.85,1.93-7.29,2.83-3.86,1.4-7.77,2.68-11.71,3.87-2.18.66-4.37,1.34-6.57,1.94-4.28,1.15-8.62,2.12-13,3-2,.41-4.05.9-6.11,1.26-4.7.83-9.46,1.43-14.24,2-1.8.21-3.59.51-5.4.67-6.59.57-13.23.91-19.93.91h0c-7,0-14-.42-20.82-1.06-2.08-.19-4.13-.48-6.19-.73-4.9-.59-9.74-1.32-14.53-2.22-2.15-.4-4.3-.8-6.43-1.27q-7.93-1.74-15.66-4c-1.28-.38-2.6-.68-3.88-1.08-6.33-2-12.52-4.29-18.59-6.82-1.63-.68-3.21-1.46-4.83-2.18-4.46-2-8.85-4.08-13.15-6.35q-3-1.56-5.88-3.2-6.14-3.47-12-7.3c-1.63-1.06-3.3-2.07-4.9-3.17-5.29-3.64-10.45-7.46-15.41-11.53-1-.84-2-1.76-3-2.61-4-3.37-7.84-6.87-11.56-10.5-1.58-1.54-3.1-3.14-4.64-4.72q-4.73-4.91-9.15-10.07c-1.37-1.6-2.76-3.18-4.08-4.82-3.84-4.74-7.52-9.61-11-14.67-.21-.31-.46-.6-.67-.92-3.71-5.5-7.14-11.2-10.36-17-.76-1.39-1.46-2.81-2.2-4.21q-3.72-7.08-7-14.44-.93-2.1-1.82-4.21c-.66-1.61-1.17-3.29-1.79-4.91h595.1V833c0-206-162.49-374.36-366-384.71-6.56-.34-13-1-19.69-1h0a385.57,385.57,0,0,0-383.73,346.33,388.7,388.7,0,0,0,0,78.76,382.65,382.65,0,0,0,15.37,75.19A386.31,386.31,0,0,0,5077.8,1218.7h0c10,0,20-.45,29.86-1.2,3.4-.26,6.74-.72,10.12-1.06,6.48-.67,12.94-1.39,19.33-2.37,3.82-.58,7.61-1.3,11.4-2,6.07-1.12,12.1-2.34,18.07-3.74q5.3-1.23,10.55-2.62c6.75-1.78,13.41-3.77,20-5.9,2.44-.79,4.91-1.53,7.33-2.38,94-32.42,173-100.45,219-193.32l-5.54-2.75H5226.5c-4.17,3.69-8.54,7.12-12.95,10.49-3.26,2.47-6.61,4.77-10,7.06C5201.59,1020.26,5199.61,1021.64,5197.58,1022.93ZM4870.07,747.79c.67-1.63,1.38-3.25,2.09-4.87q3.06-6.95,6.58-13.65c.84-1.62,1.65-3.26,2.54-4.85,3.15-5.7,6.49-11.28,10.11-16.65.54-.8,1.15-1.55,1.7-2.34q4.69-6.78,9.86-13.19c1.52-1.89,3.12-3.71,4.7-5.54q4-4.69,8.33-9.17c1.77-1.84,3.54-3.69,5.37-5.47,3.26-3.18,6.66-6.22,10.11-9.2,1.46-1.26,2.86-2.6,4.35-3.82,4.79-3.92,9.77-7.62,14.88-11.14,1.92-1.33,3.92-2.54,5.9-3.81,3.55-2.3,7.17-4.52,10.87-6.62q3.3-1.87,6.68-3.64c3.93-2.06,8-4,12-5.81,1.94-.87,3.83-1.8,5.8-2.62,5.95-2.47,12-4.71,18.19-6.67,1.5-.48,3.07-.84,4.59-1.28,4.93-1.45,9.92-2.76,15-3.87,2.21-.48,4.45-.9,6.68-1.32,4.72-.88,9.49-1.6,14.31-2.19,2.1-.25,4.19-.54,6.31-.74,6.85-.63,13.76-1.05,20.77-1.05h0c7,0,13.93.42,20.78,1.05,2.08.19,4.13.48,6.18.73q7.36.88,14.57,2.23c2.12.4,4.24.8,6.34,1.25q8,1.77,15.86,4.1c1.21.36,2.46.64,3.66,1,6.38,2,12.62,4.32,18.74,6.88,1.47.61,2.89,1.32,4.34,2,4.69,2.08,9.29,4.28,13.8,6.66q2.66,1.41,5.27,2.89,6.66,3.74,13,7.91c1.3.86,2.64,1.66,3.92,2.54,5.51,3.77,10.85,7.74,16,12,.44.35.84.75,1.27,1.11q7,5.83,13.41,12.21c1.19,1.16,2.34,2.37,3.5,3.56q5.52,5.67,10.64,11.72c.93,1.11,1.9,2.2,2.81,3.32a225.9,225.9,0,0,1,22.83,33.89c.39.71.73,1.43,1.11,2.14q4.4,8.22,8.11,16.82c.36.83.72,1.65,1.06,2.48.78,1.87,1.37,3.83,2.1,5.72H4868.36C4869,750.91,4869.44,749.32,4870.07,747.79Z"/><path class="cls-2" d="M4483.3,663.52c49.7-51.28,80.47-121,80.47-197.89,0-157.15-127.87-284.88-284.89-284.88H3968.54L3817.69,1218.22h89.17v.48h373.91c173.59,0,314.68-141.07,314.68-314.58C4595.45,807.66,4551.8,721.31,4483.3,663.52Zm-80.63-197.89c0,68.29-55.54,123.7-123.79,123.7h-207l35.91-247.49h171.11A123.93,123.93,0,0,1,4402.67,465.63Zm-121.9,592H4003.9l44.58-307.19h232.29c84.73,0,153.58,69,153.58,153.7S4365.5,1057.61,4280.77,1057.61Z"/><polygon class="cls-2" points="5709.4 1218.22 5858.73 188.02 5695.82 188.02 5546.46 1218.22 5709.4 1218.22"/><polygon class="cls-2" points="6080.39 1218.22 6229.85 188.02 6066.96 188.02 5917.5 1218.22 6080.39 1218.22"/></g></g></svg>